# xmcd
#
# Track frame offsets: 
#        300
#        21646
#        37680
#        65937
#        89360
#        111866
#        135135
#        152990
#        174350
#        198885
#        223638
#        242916
#        264238
#
# Disc length: 3881 seconds
#
# Revision: 0
# Processed by: cddbd v1.5.2PL0 Copyright (c) Steve Scherf et al.
# Submitted via: ExactAudioCopy v1.0b1
#
DISCID=b20f250d
DTITLE=Dana Gillespie - I Rest My Case
DYEAR=2010
DGENRE=Blues
TTITLE0=Funk Me, It's Hot!
TTITLE1=It's Gonna Be A Long Night
TTITLE2=Twentyfour Seven
TTITLE3=When Cries Become Sighs
TTITLE4=Your Love Is True
TTITLE5=Strange Are The Ways Of Love
TTITLE6=Game Over
TTITLE7=The House Of The Blues
TTITLE8=Guilty As Hell
TTITLE9=I Rest My Case
TTITLE10=Wall-To-Wall Love
TTITLE11=Unify
TTITLE12=Could've, Should've, Would've
EXTD=
EXTT0=
EXTT1=
EXTT2=
EXTT3=
EXTT4=
EXTT5=
EXTT6=
EXTT7=
EXTT8=
EXTT9=
EXTT10=
EXTT11=
EXTT12=
PLAYORDER=
